<svg width="122" height="42" viewBox="0 0 122 42" fill="none" xmlns="http://www.w3.org/2000/svg">
<rect width="122" height="42" rx="10" fill="#6B59CC"/>
<g clip-path="url(#clip0_69_199)">
<path d="M30.7617 20.087C30.7617 20.2979 30.6797 20.4737 30.5156 20.6143C30.375 20.7549 30.1992 20.8253 29.9883 20.8253H22.5L19.5117 23.8487V13.337C19.5117 13.126 19.582 12.9503 19.7227 12.8096C19.8633 12.669 20.0391 12.5987 20.25 12.5987H29.9883C30.1992 12.5987 30.375 12.669 30.5156 12.8096C30.6797 12.9503 30.7617 13.126 30.7617 13.337V20.087ZM33.75 15.587C33.9609 15.587 34.1367 15.6573 34.2773 15.7979C34.418 15.9385 34.4883 16.1143 34.4883 16.3253V27.5753L31.5 24.587H23.2383C23.0273 24.587 22.8516 24.5167 22.7109 24.376C22.5703 24.2354 22.5 24.0596 22.5 23.8487V22.337H32.2383V15.587H33.75Z" fill="#FAFBFF"/>
<path d="M48.976 21.787C49.0667 21.9576 49.1493 22.1363 49.224 22.323C49.304 22.5043 49.3813 22.6883 49.456 22.875C49.5307 22.683 49.608 22.4936 49.688 22.307C49.768 22.1203 49.8533 21.9416 49.944 21.771L53.368 15.363C53.4107 15.283 53.4533 15.219 53.496 15.171C53.544 15.123 53.5947 15.0883 53.648 15.067C53.7067 15.0456 53.7707 15.0323 53.84 15.027C53.9093 15.0216 53.992 15.019 54.088 15.019H55.712V26.587H53.816V19.115C53.816 18.9763 53.8187 18.8243 53.824 18.659C53.8347 18.4936 53.848 18.3256 53.864 18.155L50.368 24.715C50.288 24.8643 50.184 24.9816 50.056 25.067C49.928 25.147 49.7787 25.187 49.608 25.187H49.312C49.1413 25.187 48.992 25.147 48.864 25.067C48.736 24.9816 48.632 24.8643 48.552 24.715L45.008 18.131C45.0293 18.307 45.0427 18.4803 45.048 18.651C45.0587 18.8163 45.064 18.971 45.064 19.115V26.587H43.168V15.019H44.792C44.888 15.019 44.9707 15.0216 45.04 15.027C45.1093 15.0323 45.1707 15.0456 45.224 15.067C45.2827 15.0883 45.336 15.123 45.384 15.171C45.432 15.219 45.4773 15.283 45.52 15.363L48.976 21.787ZM61.323 18.251C61.8403 18.251 62.315 18.3336 62.747 18.499C63.1843 18.6643 63.5603 18.907 63.875 19.227C64.1897 19.5416 64.435 19.931 64.611 20.395C64.787 20.8536 64.875 21.379 64.875 21.971C64.875 22.1203 64.867 22.2456 64.851 22.347C64.8403 22.443 64.8163 22.5203 64.779 22.579C64.747 22.6323 64.7017 22.6723 64.643 22.699C64.5843 22.7203 64.5097 22.731 64.419 22.731H59.347C59.4057 23.5736 59.6323 24.1923 60.027 24.587C60.4217 24.9816 60.9443 25.179 61.595 25.179C61.915 25.179 62.1897 25.1416 62.419 25.067C62.6537 24.9923 62.8563 24.9096 63.027 24.819C63.203 24.7283 63.355 24.6456 63.483 24.571C63.6163 24.4963 63.7443 24.459 63.867 24.459C63.947 24.459 64.0163 24.475 64.075 24.507C64.1337 24.539 64.1843 24.5843 64.227 24.643L64.803 25.363C64.5843 25.619 64.339 25.835 64.067 26.011C63.795 26.1816 63.5097 26.3203 63.211 26.427C62.9177 26.5283 62.6163 26.6003 62.307 26.643C62.003 26.6856 61.707 26.707 61.419 26.707C60.8483 26.707 60.3177 26.6136 59.827 26.427C59.3363 26.235 58.9097 25.955 58.547 25.587C58.1843 25.2136 57.899 24.755 57.691 24.211C57.483 23.6616 57.379 23.027 57.379 22.307C57.379 21.747 57.4697 21.2216 57.651 20.731C57.8323 20.235 58.091 19.8056 58.427 19.443C58.7683 19.075 59.1817 18.7843 59.667 18.571C60.1577 18.3576 60.7097 18.251 61.323 18.251ZM61.363 19.667C60.787 19.667 60.3363 19.8296 60.011 20.155C59.6857 20.4803 59.4777 20.9416 59.387 21.539H63.099C63.099 21.283 63.0643 21.043 62.995 20.819C62.9257 20.5896 62.819 20.3896 62.675 20.219C62.531 20.0483 62.3497 19.915 62.131 19.819C61.9123 19.7176 61.6563 19.667 61.363 19.667ZM71.3499 19.979C71.2965 20.0643 71.2405 20.1256 71.1819 20.163C71.1232 20.195 71.0485 20.211 70.9579 20.211C70.8619 20.211 70.7579 20.1843 70.6459 20.131C70.5392 20.0776 70.4139 20.019 70.2699 19.955C70.1259 19.8856 69.9605 19.8243 69.7739 19.771C69.5925 19.7176 69.3765 19.691 69.1259 19.691C68.7365 19.691 68.4299 19.7736 68.2059 19.939C67.9819 20.1043 67.8699 20.3203 67.8699 20.587C67.8699 20.763 67.9259 20.9123 68.0379 21.035C68.1552 21.1523 68.3072 21.2563 68.4939 21.347C68.6859 21.4376 68.9019 21.5203 69.1419 21.595C69.3819 21.6643 69.6272 21.7416 69.8779 21.827C70.1285 21.9123 70.3739 22.011 70.6139 22.123C70.8539 22.2296 71.0672 22.3683 71.2539 22.539C71.4459 22.7043 71.5979 22.9043 71.7099 23.139C71.8272 23.3736 71.8859 23.6563 71.8859 23.987C71.8859 24.3816 71.8139 24.747 71.6699 25.083C71.5259 25.4136 71.3152 25.7016 71.0379 25.947C70.7605 26.187 70.4165 26.3763 70.0059 26.515C69.6005 26.6483 69.1339 26.715 68.6059 26.715C68.3232 26.715 68.0459 26.6883 67.7739 26.635C67.5072 26.587 67.2485 26.5176 66.9979 26.427C66.7525 26.3363 66.5232 26.2296 66.3099 26.107C66.1019 25.9843 65.9179 25.851 65.7579 25.707L66.2139 24.955C66.2725 24.8643 66.3419 24.795 66.4219 24.747C66.5019 24.699 66.6032 24.675 66.7259 24.675C66.8485 24.675 66.9632 24.7096 67.0699 24.779C67.1819 24.8483 67.3099 24.923 67.4539 25.003C67.5979 25.083 67.7659 25.1576 67.9579 25.227C68.1552 25.2963 68.4032 25.331 68.7019 25.331C68.9365 25.331 69.1365 25.3043 69.3019 25.251C69.4725 25.1923 69.6112 25.1176 69.7179 25.027C69.8299 24.9363 69.9099 24.8323 69.9579 24.715C70.0112 24.5923 70.0379 24.467 70.0379 24.339C70.0379 24.147 69.9792 23.9896 69.8619 23.867C69.7499 23.7443 69.5979 23.6376 69.4059 23.547C69.2192 23.4563 69.0032 23.3763 68.7579 23.307C68.5179 23.2323 68.2699 23.1523 68.0139 23.067C67.7632 22.9816 67.5152 22.883 67.2699 22.771C67.0299 22.6536 66.8139 22.507 66.6219 22.331C66.4352 22.155 66.2832 21.939 66.1659 21.683C66.0539 21.427 65.9979 21.1176 65.9979 20.755C65.9979 20.419 66.0645 20.099 66.1979 19.795C66.3312 19.491 66.5259 19.227 66.7819 19.003C67.0432 18.7736 67.3659 18.5923 67.7499 18.459C68.1392 18.3203 68.5872 18.251 69.0939 18.251C69.6592 18.251 70.1739 18.3443 70.6379 18.531C71.1019 18.7176 71.4885 18.963 71.7979 19.267L71.3499 19.979ZM78.3343 19.979C78.2809 20.0643 78.2249 20.1256 78.1663 20.163C78.1076 20.195 78.0329 20.211 77.9423 20.211C77.8463 20.211 77.7423 20.1843 77.6303 20.131C77.5236 20.0776 77.3983 20.019 77.2543 19.955C77.1103 19.8856 76.9449 19.8243 76.7583 19.771C76.5769 19.7176 76.3609 19.691 76.1103 19.691C75.7209 19.691 75.4143 19.7736 75.1903 19.939C74.9663 20.1043 74.8543 20.3203 74.8543 20.587C74.8543 20.763 74.9103 20.9123 75.0223 21.035C75.1396 21.1523 75.2916 21.2563 75.4783 21.347C75.6703 21.4376 75.8863 21.5203 76.1263 21.595C76.3663 21.6643 76.6116 21.7416 76.8623 21.827C77.1129 21.9123 77.3583 22.011 77.5983 22.123C77.8383 22.2296 78.0516 22.3683 78.2383 22.539C78.4303 22.7043 78.5823 22.9043 78.6943 23.139C78.8116 23.3736 78.8703 23.6563 78.8703 23.987C78.8703 24.3816 78.7983 24.747 78.6543 25.083C78.5103 25.4136 78.2996 25.7016 78.0223 25.947C77.7449 26.187 77.4009 26.3763 76.9903 26.515C76.5849 26.6483 76.1183 26.715 75.5903 26.715C75.3076 26.715 75.0303 26.6883 74.7582 26.635C74.4916 26.587 74.2329 26.5176 73.9823 26.427C73.7369 26.3363 73.5076 26.2296 73.2943 26.107C73.0863 25.9843 72.9023 25.851 72.7423 25.707L73.1983 24.955C73.2569 24.8643 73.3263 24.795 73.4062 24.747C73.4863 24.699 73.5876 24.675 73.7103 24.675C73.8329 24.675 73.9476 24.7096 74.0543 24.779C74.1663 24.8483 74.2943 24.923 74.4383 25.003C74.5823 25.083 74.7503 25.1576 74.9423 25.227C75.1396 25.2963 75.3876 25.331 75.6863 25.331C75.9209 25.331 76.1209 25.3043 76.2863 25.251C76.4569 25.1923 76.5956 25.1176 76.7023 25.027C76.8143 24.9363 76.8943 24.8323 76.9423 24.715C76.9956 24.5923 77.0223 24.467 77.0223 24.339C77.0223 24.147 76.9636 23.9896 76.8463 23.867C76.7343 23.7443 76.5823 23.6376 76.3903 23.547C76.2036 23.4563 75.9876 23.3763 75.7423 23.307C75.5023 23.2323 75.2543 23.1523 74.9983 23.067C74.7476 22.9816 74.4996 22.883 74.2543 22.771C74.0143 22.6536 73.7983 22.507 73.6063 22.331C73.4196 22.155 73.2676 21.939 73.1503 21.683C73.0383 21.427 72.9823 21.1176 72.9823 20.755C72.9823 20.419 73.0489 20.099 73.1823 19.795C73.3156 19.491 73.5103 19.227 73.7663 19.003C74.0276 18.7736 74.3503 18.5923 74.7343 18.459C75.1236 18.3203 75.5716 18.251 76.0783 18.251C76.6436 18.251 77.1583 18.3443 77.6223 18.531C78.0863 18.7176 78.4729 18.963 78.7823 19.267L78.3343 19.979ZM86.8786 26.587H85.9906C85.804 26.587 85.6573 26.5603 85.5506 26.507C85.444 26.4483 85.364 26.3336 85.3106 26.163L85.1346 25.579C84.9266 25.7656 84.7213 25.931 84.5186 26.075C84.3213 26.2136 84.116 26.331 83.9026 26.427C83.6893 26.523 83.4626 26.595 83.2226 26.643C82.9826 26.691 82.716 26.715 82.4226 26.715C82.076 26.715 81.756 26.6696 81.4626 26.579C81.1693 26.483 80.916 26.3416 80.7026 26.155C80.4946 25.9683 80.332 25.7363 80.2146 25.459C80.0973 25.1816 80.0386 24.859 80.0386 24.491C80.0386 24.1816 80.1186 23.8776 80.2786 23.579C80.444 23.275 80.716 23.003 81.0946 22.763C81.4733 22.5176 81.9773 22.315 82.6066 22.155C83.236 21.995 84.0173 21.9043 84.9506 21.883V21.403C84.9506 20.8536 84.8333 20.4483 84.5986 20.187C84.3693 19.9203 84.0333 19.787 83.5906 19.787C83.2706 19.787 83.004 19.8243 82.7906 19.899C82.5773 19.9736 82.3906 20.059 82.2306 20.155C82.076 20.2456 81.932 20.3283 81.7986 20.403C81.6653 20.4776 81.5186 20.515 81.3586 20.515C81.2253 20.515 81.1106 20.4803 81.0146 20.411C80.9186 20.3416 80.8413 20.2563 80.7826 20.155L80.4226 19.523C81.3666 18.659 82.5053 18.227 83.8386 18.227C84.3186 18.227 84.7453 18.307 85.1186 18.467C85.4973 18.6216 85.8173 18.8403 86.0786 19.123C86.34 19.4003 86.5373 19.7336 86.6706 20.123C86.8093 20.5123 86.8786 20.939 86.8786 21.403V26.587ZM83.0386 25.355C83.2413 25.355 83.428 25.3363 83.5986 25.299C83.7693 25.2616 83.9293 25.2056 84.0786 25.131C84.2333 25.0563 84.38 24.9656 84.5186 24.859C84.6626 24.747 84.8066 24.6163 84.9506 24.467V23.083C84.3746 23.1096 83.892 23.1603 83.5026 23.235C83.1186 23.3043 82.8093 23.395 82.5746 23.507C82.34 23.619 82.172 23.7496 82.0706 23.899C81.9746 24.0483 81.9266 24.211 81.9266 24.387C81.9266 24.7336 82.028 24.9816 82.2306 25.131C82.4386 25.2803 82.708 25.355 83.0386 25.355ZM91.6616 18.235C92.0136 18.235 92.3443 18.2723 92.6536 18.347C92.963 18.4163 93.2456 18.5203 93.5016 18.659H95.8616V19.395C95.8616 19.5176 95.8296 19.6136 95.7656 19.683C95.7016 19.7523 95.5923 19.8003 95.4376 19.827L94.7016 19.963C94.755 20.1016 94.795 20.2483 94.8216 20.403C94.8536 20.5576 94.8696 20.7203 94.8696 20.891C94.8696 21.2963 94.787 21.6643 94.6216 21.995C94.4616 22.3203 94.2376 22.5976 93.9496 22.827C93.667 23.0563 93.3283 23.235 92.9336 23.363C92.5443 23.4856 92.1203 23.547 91.6616 23.547C91.3523 23.547 91.051 23.5176 90.7576 23.459C90.5016 23.6136 90.3736 23.787 90.3736 23.979C90.3736 24.1443 90.4483 24.267 90.5976 24.347C90.7523 24.4216 90.9523 24.475 91.1976 24.507C91.4483 24.539 91.731 24.5603 92.0456 24.571C92.3603 24.5763 92.683 24.5923 93.0136 24.619C93.3443 24.6456 93.667 24.6936 93.9816 24.763C94.2963 24.827 94.5763 24.931 94.8216 25.075C95.0723 25.219 95.2723 25.4163 95.4216 25.667C95.5763 25.9123 95.6536 26.2296 95.6536 26.619C95.6536 26.9816 95.563 27.3336 95.3816 27.675C95.2056 28.0163 94.947 28.3203 94.6056 28.587C94.2696 28.8536 93.8563 29.067 93.3656 29.227C92.875 29.3923 92.315 29.475 91.6856 29.475C91.0616 29.475 90.5203 29.4136 90.0616 29.291C89.603 29.1736 89.2216 29.0136 88.9176 28.811C88.619 28.6136 88.395 28.3843 88.2456 28.123C88.0963 27.8616 88.0216 27.5896 88.0216 27.307C88.0216 26.923 88.139 26.6003 88.3736 26.339C88.6083 26.0776 88.9336 25.8696 89.3496 25.715C89.147 25.603 88.9843 25.4536 88.8616 25.267C88.739 25.0803 88.6776 24.8376 88.6776 24.539C88.6776 24.4163 88.699 24.291 88.7416 24.163C88.7843 24.0296 88.8483 23.899 88.9336 23.771C89.0243 23.643 89.1363 23.523 89.2696 23.411C89.403 23.2936 89.5603 23.1896 89.7416 23.099C89.3256 22.875 88.9976 22.5763 88.7576 22.203C88.523 21.8296 88.4056 21.3923 88.4056 20.891C88.4056 20.4856 88.4856 20.1203 88.6456 19.795C88.811 19.4643 89.0376 19.1843 89.3256 18.955C89.619 18.7203 89.963 18.5416 90.3576 18.419C90.7576 18.2963 91.1923 18.235 91.6616 18.235ZM93.8296 26.955C93.8296 26.795 93.7816 26.6643 93.6856 26.563C93.5896 26.4616 93.459 26.3843 93.2936 26.331C93.1283 26.2723 92.9336 26.2296 92.7096 26.203C92.491 26.1763 92.2563 26.1576 92.0056 26.147C91.7603 26.131 91.5043 26.1176 91.2376 26.107C90.9763 26.091 90.723 26.067 90.4776 26.035C90.2536 26.1576 90.0723 26.3043 89.9336 26.475C89.8003 26.6403 89.7336 26.8323 89.7336 27.051C89.7336 27.195 89.7683 27.3283 89.8376 27.451C89.9123 27.579 90.027 27.6883 90.1816 27.779C90.3416 27.8696 90.547 27.939 90.7976 27.987C91.0483 28.0403 91.355 28.067 91.7176 28.067C92.0856 28.067 92.403 28.0376 92.6696 27.979C92.9363 27.9256 93.155 27.8483 93.3256 27.747C93.5016 27.651 93.6296 27.5336 93.7096 27.395C93.7896 27.2616 93.8296 27.115 93.8296 26.955ZM91.6616 22.283C91.907 22.283 92.1203 22.251 92.3016 22.187C92.483 22.1176 92.6323 22.0243 92.7496 21.907C92.8723 21.7896 92.963 21.6483 93.0216 21.483C93.0856 21.3176 93.1176 21.1363 93.1176 20.939C93.1176 20.5336 92.995 20.2136 92.7496 19.979C92.5096 19.739 92.147 19.619 91.6616 19.619C91.1763 19.619 90.811 19.739 90.5656 19.979C90.3256 20.2136 90.2056 20.5336 90.2056 20.939C90.2056 21.131 90.235 21.3096 90.2936 21.475C90.3576 21.6403 90.4483 21.7843 90.5656 21.907C90.6883 22.0243 90.8403 22.1176 91.0216 22.187C91.2083 22.251 91.4216 22.283 91.6616 22.283ZM100.495 18.251C101.012 18.251 101.487 18.3336 101.919 18.499C102.356 18.6643 102.732 18.907 103.047 19.227C103.362 19.5416 103.607 19.931 103.783 20.395C103.959 20.8536 104.047 21.379 104.047 21.971C104.047 22.1203 104.039 22.2456 104.023 22.347C104.012 22.443 103.988 22.5203 103.951 22.579C103.919 22.6323 103.874 22.6723 103.815 22.699C103.756 22.7203 103.682 22.731 103.591 22.731H98.5189C98.5775 23.5736 98.8042 24.1923 99.1989 24.587C99.5935 24.9816 100.116 25.179 100.767 25.179C101.087 25.179 101.362 25.1416 101.591 25.067C101.826 24.9923 102.028 24.9096 102.199 24.819C102.375 24.7283 102.527 24.6456 102.655 24.571C102.788 24.4963 102.916 24.459 103.039 24.459C103.119 24.459 103.188 24.475 103.247 24.507C103.306 24.539 103.356 24.5843 103.399 24.643L103.975 25.363C103.756 25.619 103.511 25.835 103.239 26.011C102.967 26.1816 102.682 26.3203 102.383 26.427C102.09 26.5283 101.788 26.6003 101.479 26.643C101.175 26.6856 100.879 26.707 100.591 26.707C100.02 26.707 99.4895 26.6136 98.9989 26.427C98.5082 26.235 98.0815 25.955 97.7189 25.587C97.3562 25.2136 97.0709 24.755 96.8629 24.211C96.6549 23.6616 96.5509 23.027 96.5509 22.307C96.5509 21.747 96.6415 21.2216 96.8229 20.731C97.0042 20.235 97.2629 19.8056 97.5989 19.443C97.9402 19.075 98.3535 18.7843 98.8389 18.571C99.3295 18.3576 99.8815 18.251 100.495 18.251ZM100.535 19.667C99.9589 19.667 99.5082 19.8296 99.1829 20.155C98.8575 20.4803 98.6495 20.9416 98.5589 21.539H102.271C102.271 21.283 102.236 21.043 102.167 20.819C102.098 20.5896 101.991 20.3896 101.847 20.219C101.703 20.0483 101.522 19.915 101.303 19.819C101.084 19.7176 100.828 19.667 100.535 19.667Z" fill="white"/>
</g>
<defs>
<clipPath id="clip0_69_199">
<rect width="87" height="19" fill="white" transform="translate(18 10.587)"/>
</clipPath>
</defs>
</svg>
