<svg width="37" height="36" viewBox="0 0 37 36" fill="none" xmlns="http://www.w3.org/2000/svg">
<rect x="0.782593" y="0.5" width="35" height="35" rx="9.5" fill="white" stroke="#ECEEF5"/>
<path d="M22.0443 18C22.0443 18.2109 21.9623 18.3867 21.7982 18.5273C21.6576 18.668 21.4818 18.7383 21.2709 18.7383H13.7826L10.7943 21.7617V11.25C10.7943 11.0391 10.8646 10.8633 11.0052 10.7227C11.1459 10.582 11.3217 10.5117 11.5326 10.5117H21.2709C21.4818 10.5117 21.6576 10.582 21.7982 10.7227C21.9623 10.8633 22.0443 11.0391 22.0443 11.25V18ZM25.0326 13.5C25.2435 13.5 25.4193 13.5703 25.5599 13.7109C25.7006 13.8516 25.7709 14.0273 25.7709 14.2383V25.4883L22.7826 22.5H14.5209C14.3099 22.5 14.1342 22.4297 13.9935 22.2891C13.8529 22.1484 13.7826 21.9727 13.7826 21.7617V20.25H23.5209V13.5H25.0326Z" fill="#8083A3"/>
</svg>
