<svg width="37" height="36" viewBox="0 0 37 36" fill="none" xmlns="http://www.w3.org/2000/svg">
<rect x="0.782593" y="0.5" width="35" height="35" rx="9.5" fill="white" stroke="#ECEEF5"/>
<path d="M24.2943 20.5312C24.5052 20.5312 24.681 20.6016 24.8217 20.7422C24.9623 20.8828 25.0326 21.0586 25.0326 21.2695V23.8711C25.0326 24.457 24.7865 24.75 24.2943 24.75C20.8021 24.75 17.8021 23.4961 15.2943 20.9883C12.7865 18.4805 11.5326 15.4805 11.5326 11.9883C11.5326 11.4961 11.8256 11.25 12.4115 11.25H15.0131C15.224 11.25 15.3998 11.3203 15.5404 11.4609C15.681 11.6016 15.7513 11.7773 15.7513 11.9883C15.7513 12.9023 15.892 13.7812 16.1732 14.625C16.267 14.9297 16.2084 15.1875 15.9974 15.3984L14.556 16.6641C15.6342 18.9141 17.3568 20.6133 19.724 21.7617L20.8842 20.2852C21.0248 20.1445 21.2006 20.0742 21.4115 20.0742C21.5287 20.0742 21.6107 20.0859 21.6576 20.1094C22.5013 20.3906 23.3802 20.5312 24.2943 20.5312Z" fill="#8083A3"/>
</svg>
