<svg width="37" height="36" viewBox="0 0 37 36" fill="none" xmlns="http://www.w3.org/2000/svg">
<rect x="0.782593" y="0.5" width="35" height="35" rx="9.5" fill="white" stroke="#ECEEF5"/>
<path d="M17.2279 16.9453C17.5326 16.6406 17.8842 16.4883 18.2826 16.4883C18.681 16.4883 19.0326 16.6406 19.3373 16.9453C19.642 17.25 19.7943 17.6016 19.7943 18C19.7943 18.3984 19.642 18.75 19.3373 19.0547C19.0326 19.3594 18.681 19.5117 18.2826 19.5117C17.8842 19.5117 17.5326 19.3594 17.2279 19.0547C16.9232 18.75 16.7709 18.3984 16.7709 18C16.7709 17.6016 16.9232 17.25 17.2279 16.9453ZM21.7279 16.9453C22.0326 16.6406 22.3842 16.4883 22.7826 16.4883C23.181 16.4883 23.5326 16.6406 23.8373 16.9453C24.142 17.25 24.2943 17.6016 24.2943 18C24.2943 18.3984 24.142 18.75 23.8373 19.0547C23.5326 19.3594 23.181 19.5117 22.7826 19.5117C22.3842 19.5117 22.0326 19.3594 21.7279 19.0547C21.4232 18.75 21.2709 18.3984 21.2709 18C21.2709 17.6016 21.4232 17.25 21.7279 16.9453ZM12.7279 16.9453C13.0326 16.6406 13.3842 16.4883 13.7826 16.4883C14.181 16.4883 14.5326 16.6406 14.8373 16.9453C15.142 17.25 15.2943 17.6016 15.2943 18C15.2943 18.3984 15.142 18.75 14.8373 19.0547C14.5326 19.3594 14.181 19.5117 13.7826 19.5117C13.3842 19.5117 13.0326 19.3594 12.7279 19.0547C12.4232 18.75 12.2709 18.3984 12.2709 18C12.2709 17.6016 12.4232 17.25 12.7279 16.9453Z" fill="#8083A3"/>
</svg>
