<svg width="42" height="42" viewBox="0 0 42 42" fill="none" xmlns="http://www.w3.org/2000/svg">
<rect x="0.5" y="0.5" width="41" height="41" rx="9.5" fill="white" stroke="#ECEEF5"/>
<path d="M21 19.4883L23.9883 22.5117H21.7383V27.0117H20.2617V22.5117H18.0117L21 19.4883ZM26.2383 14.9883C26.6602 14.9883 27.0117 15.1406 27.293 15.4453C27.5977 15.7266 27.75 16.0781 27.75 16.5V25.5C27.75 25.8984 27.5977 26.25 27.293 26.5547C26.9883 26.8594 26.6367 27.0117 26.2383 27.0117H23.25V25.5H26.2383V18.0117H15.7617V25.5H18.75V27.0117H15.7617C15.3398 27.0117 14.9766 26.8711 14.6719 26.5898C14.3906 26.2852 14.25 25.9219 14.25 25.5V16.5C14.25 16.0781 14.3906 15.7266 14.6719 15.4453C14.9766 15.1406 15.3398 14.9883 15.7617 14.9883H26.2383Z" fill="#8083A3"/>
</svg>
